<?xml version="1.0" encoding="utf-8"?>
<!-- Generator: Adobe Illustrator 16.0.0, SVG Export Plug-In . SVG Version: 6.00 Build 0)  -->
<!DOCTYPE svg PUBLIC "-//W3C//DTD SVG 1.1//EN" "http://www.w3.org/Graphics/SVG/1.1/DTD/svg11.dtd">
<svg version="1.1" id="Layer_1" xmlns="http://www.w3.org/2000/svg" xmlns:xlink="http://www.w3.org/1999/xlink" x="0px" y="0px"
	 width="1370.5px" height="103.5px" viewBox="0 0 1370.5 103.5" enable-background="new 0 0 1370.5 103.5" xml:space="preserve">
<g>
	<path fill="#FFD559" d="M475.5,51.3h-51.4c-4.7,0-8.6,3.8-8.6,8.601c0,1.199,0.3,1.699,0.7,3.399h-1.6c-4.7,0-8.6,3.8-8.6,8.601
		c0,1.199,0.3,1.699,0.7,3.399h-29c-4.7,0-8.6,3.8-8.6,8.5s3.8,8.601,8.6,8.601h9.8c-0.3,0-0.4,1.699-0.4,2.6c0,4.7,3.8,8.5,8.6,8.5
		h60.8c4.7,0,8.6-3.8,8.6-8.5s-3.8-8.6-8.6-8.6h-9.8C447,85.6,447.1,84.7,447.1,83.8c0-1.2-0.3-2.6-0.699-3.399H466
		c4.7,0,8.6-3.801,8.6-8.5c0-1.2-0.3-2.601-0.699-3.4h1.6c4.7,0,8.6-3.8,8.6-8.5C484.1,55.2,480.2,51.3,475.5,51.3z"/>
	<path fill="#FFD559" d="M119,17.1h-6.9c-4.7,0-8.6-3.8-8.6-8.5c0-4.7,3.8-8.6,8.6-8.6h6.9c4.7,0,8.6,3.8,8.6,8.6
		C127.6,13.3,123.8,17.1,119,17.1z"/>
	<path fill="#FFD559" d="M183.3,0h-30.8c-4.7,0-8.6,3.8-8.6,8.6c0,1.6,0.4,2.6,1.2,4.3h-5.4c-4.7,0-8.6,3.8-8.6,8.6
		c0,4.7,3.8,8.5,8.6,8.5h30.8c4.7,0,8.6-3.8,8.6-8.5c0-1.6-0.4-3.4-1.2-4.3h5.5c4.7,0,8.6-3.8,8.6-8.5C191.9,3.8,188,0,183.3,0z"/>
	<path fill="#FFD559" d="M879.1,41.9h-30.8c-4.7,0-8.6,3.8-8.6,8.6c0,1.6,0.4,2.6,1.2,4.3h-5.4c-4.7,0-8.6,3.8-8.6,8.601
		c0,4.699,3.8,8.6,8.6,8.6h30.9c4.7,0,8.6-3.8,8.6-8.6c0-1.601-0.4-3.4-1.2-4.301h5.4c4.7,0,8.6-3.8,8.6-8.5
		C887.6,45.8,883.8,41.9,879.1,41.9z"/>
	<path fill="#FFD559" d="M1194,17.1h-6.9c-4.699,0-8.6-3.8-8.6-8.5c0-4.7,3.8-8.6,8.6-8.6h6.9c4.7,0,8.6,3.8,8.6,8.6
		C1202.6,13.3,1198.8,17.1,1194,17.1z"/>
	<path fill="#FFD559" d="M1258.3,0h-30.8c-4.7,0-8.6,3.8-8.6,8.6c0,1.6,0.399,2.6,1.199,4.3h-5.399c-4.7,0-8.601,3.8-8.601,8.6
		c0,4.7,3.801,8.5,8.601,8.5h30.8c4.7,0,8.6-3.8,8.6-8.5c0-1.6-0.399-3.4-1.199-4.3h5.5c4.699,0,8.6-3.8,8.6-8.5
		C1266.9,3.8,1263,0,1258.3,0z"/>
</g>
<path fill="#FFD559" d="M1098.6,84.8h-50.5c-2.8,0-5.1,2.3-5.1,5.101c0,1.3,0.5,1.699,1.3,3.399h-9c-2.8,0-5.1,2.3-5.1,5.101
	c0,2.8,2.3,5.1,5.1,5.1h50.5c2.801,0,5.101-2.3,5.101-5.1c0-1.301-0.5-2.601-1.301-3.4h9c2.801,0,5.2-2.3,5.2-5.1
	C1103.8,87.1,1101.5,84.8,1098.6,84.8z"/>
</svg>
